<?xml version="1.0" encoding="UTF-8"?>
<svg width="123px" height="76px" viewBox="0 0 123 76" version="1.1" xmlns="http://www.w3.org/2000/svg" xmlns:xlink="http://www.w3.org/1999/xlink">
    <!-- Generator: sketchtool 51.2 (57519) - http://www.bohemiancoding.com/sketch -->
    <title>F0D433B5-4937-4A05-B8A4-8A67FA20DFE1</title>
    <desc>Created with sketchtool.</desc>
    <defs></defs>
    <g id="Page-1" stroke="none" stroke-width="1" fill="none" fill-rule="evenodd">
        <g id="Pla-de-treball-nou-amb-text" transform="translate(-343.000000, -672.000000)">
            <g id="dedicacio_icona" transform="translate(343.000000, 672.000000)">
                <path d="M28,0 L95,0 C110.463973,-2.84068575e-15 123,12.536027 123,28 L123,53 C123,54.6568542 121.656854,56 120,56 L3,56 C1.34314575,56 2.02906125e-16,54.6568542 0,53 L0,28 C-1.8937905e-15,12.536027 12.536027,2.84068575e-15 28,0 Z" id="Rectangle-2-Copy" fill="#FDF0F6"></path>
                <g id="dedicacio" transform="translate(28.000000, 25.000000)">
                    <rect id="Path" fill="#FFFFFF" x="5" y="0" width="57" height="38" rx="3"></rect>
                    <path d="M9.13636364,0 C6.61731591,0 4.56818182,2.04025484 4.56818182,4.5483871 L4.56818182,37.9032258 L0.761363636,37.9032258 C0.229002955,37.9032258 0.00297693182,38.3592471 0,38.6612903 L0,41.6935484 C0,44.6192226 2.39113864,47 5.32954545,47 L61.6704545,47 C64.6088614,47 67,44.6192226 67,41.6935484 L67,38.6612903 C67,38.264489 66.6371645,37.9032258 66.2386364,37.9032258 L62.4318182,37.9032258 L62.4318182,4.5483871 C62.4318182,2.04025484 60.3826841,0 57.8636364,0 L9.13636364,0 Z M9.13636364,1.51612903 L57.8636364,1.51612903 C59.5648273,1.51612903 60.9090909,2.85456774 60.9090909,4.5483871 L60.9090909,6.06451613 L6.09090909,6.06451613 L6.09090909,4.5483871 C6.09090909,2.85456774 7.43517273,1.51612903 9.13636364,1.51612903 Z M6.09090909,7.58064516 L60.9090909,7.58064516 L60.9090909,37.9032258 L6.09090909,37.9032258 L6.09090909,7.58064516 Z M1.52272727,39.4193548 L65.4772727,39.4193548 L65.4772727,41.6935484 C65.4772727,43.8078661 63.7939739,45.483871 61.6704545,45.483871 L5.32954545,45.483871 C3.20602614,45.483871 1.52272727,43.8078661 1.52272727,41.6935484 L1.52272727,39.4193548 Z" id="Fill-1" fill="#000000"></path>
                    <polygon id="Path-Copy" fill="#FFFFFF" transform="translate(62.500000, 36.000000) scale(-1, 1) translate(-62.500000, -36.000000) " points="75.9998481 25.2744 74.3296166 25.2744 72.9248966 22.4619 52.0378892 21 50.5945881 25.27425 49 25.27425 49 30.71175 50.5189446 30.71175 53.3669658 51 71.6330342 51 74.4810554 30.71175 76 30.71175"></polygon>
                    <path d="M75.9998481,25.2744 L74.3296166,25.2744 L72.9248966,22.4619 L52.0378892,21 L50.5945881,25.27425 L49,25.27425 L49,30.71175 L50.5189446,30.71175 L53.3669658,51 L71.6330342,51 L74.4810554,30.71175 L76,30.71175 L75.9998481,25.2744 Z M52.8731569,22.2744 L72.1254001,23.625 L72.9605159,25.2744 L51.8479452,25.2744 L52.8731569,22.2744 Z M72.5051363,35.850525 L54.810191,35.850525 L54.810191,36.263625 L72.4679221,36.263625 L71.3287137,44.364375 L56.3291356,44.3629088 L56.3291356,44.7760088 L71.2531462,44.7760088 L70.5322551,49.8002588 L54.4306827,49.8002588 L51.7339484,30.7498837 L73.2646086,30.7498837 L72.5051363,35.850525 Z M74.7835532,29.512275 L50.2150038,29.512275 L50.2150038,26.474175 L74.7835532,26.474175 L74.7835532,29.512275 Z" id="Fill-1" fill="#000000" transform="translate(62.500000, 36.000000) scale(-1, 1) translate(-62.500000, -36.000000) "></path>
                    <path d="M22.6973631,14.0057782 C22.275531,14.0563019 21.9643917,14.546008 22.0032831,15.0940581 C22.0421746,15.6421082 22.4191337,16.0462582 22.8410041,15.9957344 L41.2221556,15.9957344 C41.4285836,15.9996247 41.6260355,15.894687 41.7696382,15.7081333 C41.9162356,15.5215795 42,15.2689509 42,15.0007812 C42,14.7326114 41.9162279,14.4799829 41.7696382,14.2934291 C41.6260355,14.1068754 41.4285836,14.0019377 41.2221556,14.0058279 L22.8410041,14.0058279 C22.7931365,13.9980574 22.745269,13.9980574 22.6974014,14.0058279 L22.6973631,14.0057782 Z" id="Path" fill="#000000"></path>
                    <path d="M22.6973631,19.0057782 C22.275531,19.0563019 21.9643917,19.546008 22.0032831,20.0940581 C22.0421746,20.6421082 22.4191337,21.0462582 22.8410041,20.9957344 L41.2221556,20.9957344 C41.4285836,20.9996247 41.6260355,20.894687 41.7696382,20.7081333 C41.9162356,20.5215795 42,20.2689509 42,20.0007812 C42,19.7326114 41.9162279,19.4799829 41.7696382,19.2934291 C41.6260355,19.1068754 41.4285836,19.0019377 41.2221556,19.0058279 L22.8410041,19.0058279 C22.7931365,18.9980574 22.745269,18.9980574 22.6974014,19.0058279 L22.6973631,19.0057782 Z" id="Path" fill="#000000"></path>
                    <path d="M22.6973631,29.0057782 C22.275531,29.0563019 21.9643917,29.546008 22.0032831,30.0940581 C22.0421746,30.6421082 22.4191337,31.0462582 22.8410041,30.9957344 L41.2221556,30.9957344 C41.4285836,30.9996247 41.6260355,30.894687 41.7696382,30.7081333 C41.9162356,30.5215795 42,30.2689509 42,30.0007812 C42,29.7326114 41.9162279,29.4799829 41.7696382,29.2934291 C41.6260355,29.1068754 41.4285836,29.0019377 41.2221556,29.0058279 L22.8410041,29.0058279 C22.7931365,28.9980574 22.745269,28.9980574 22.6974014,29.0058279 L22.6973631,29.0057782 Z" id="Path-Copy-2" fill="#000000"></path>
                    <path d="M22.0032831,25.0940581 C22.0421746,25.6421082 22.4191337,26.0462582 22.8410041,25.9957344 L41.2221556,25.9957344 C41.4285836,25.9996247 41.6260355,25.894687 41.7696382,25.7081333 C41.9162356,25.5215795 42,25.2689509 42,25.0007812 C42,24.7326114 41.9162279,24.4799829 41.7696382,24.2934291 C41.6260355,24.1068754 41.4285836,24.0019377 41.2221556,24.0058279 L22.8410041,24.0058279 C22.7931365,23.9980574 22.745269,23.9980574 22.6974014,24.0058279 C22.275531,24.0563019 21.9643917,24.546008 22.0032831,25.0940581 Z" id="Path" fill="#000000"></path>
                </g>
            </g>
        </g>
    </g>
</svg>