<?xml version="1.0" encoding="UTF-8"?>
<svg width="123px" height="71px" viewBox="0 0 123 71" version="1.1" xmlns="http://www.w3.org/2000/svg" xmlns:xlink="http://www.w3.org/1999/xlink">
    <!-- Generator: sketchtool 51.2 (57519) - http://www.bohemiancoding.com/sketch -->
    <title>173F8681-2D4B-4857-8265-0FD764987D6B</title>
    <desc>Created with sketchtool.</desc>
    <defs></defs>
    <g id="Page-1" stroke="none" stroke-width="1" fill="none" fill-rule="evenodd">
        <g id="Pla-de-treball-nou-amb-text" transform="translate(-619.000000, -488.000000)">
            <g id="material_icona" transform="translate(619.000000, 488.000000)">
                <path d="M28,0 L95,0 C110.463973,-2.84068575e-15 123,12.536027 123,28 L123,53 C123,54.6568542 121.656854,56 120,56 L3,56 C1.34314575,56 2.02906125e-16,54.6568542 0,53 L0,28 C-1.8937905e-15,12.536027 12.536027,2.84068575e-15 28,0 Z" id="Rectangle-2-Copy-3" fill="#FDF0F6"></path>
                <g id="material" transform="translate(29.000000, 20.000000)">
                    <path d="M1,2 L24.25,2 C28.1734375,2 32,5.40806333 32,8.9 L32,48 C30.159375,45.99647 27.471055,44.9333333 24.25,44.9333333 L1,44.9333333 L1,2 Z" id="Path-Copy-4" fill="#FFFFFF"></path>
                    <path d="M40.75,2 L64,2 L64,44.9333333 L40.75,44.9333333 C37.528945,44.9333333 34.840625,45.99647 33,48 L33,8.9 C33,5.40806333 36.8265625,2 40.75,2 Z" id="Path-Copy-3" fill="#FFFFFF"></path>
                    <path d="M0.623642035,0 C0.257912623,0.0694053922 -0.00589358236,0.395326439 0.000100094629,0.772544437 L0.000100094629,45.5801218 C0.000100094629,46.0056238 0.3448478,46.3526662 0.767536329,46.3526662 L24.5580596,46.3526662 C28.2963182,46.3526662 30.9013805,47.7287224 32.304561,50.5533766 C32.4304665,50.8249723 32.7032671,51 33.00005,51 C33.296833,51 33.5696335,50.8249723 33.6955391,50.5533766 C35.0984893,47.7287996 37.7036284,46.3526662 41.4420405,46.3526662 L65.2325638,46.3526662 C65.6552523,46.3526662 66,46.0056238 66,45.5801218 L66,0.772544437 C66,0.347042412 65.6552523,0 65.2325638,0 L41.4420405,0 C37.8776829,0 34.4751776,2.20600064 33.0002419,5.23877834 C31.5253062,2.20592339 28.1228009,0 24.5584433,0 L0.767920047,0 L0.6959729,0 L0.624025753,0 L0.623642035,0 Z M1.53497256,1.54508887 L24.5580596,1.54508887 C28.4432055,1.54508887 32.232422,4.97928066 32.232422,8.49798881 L32.232422,47.8977551 C30.4097609,45.8788647 27.7476781,44.8075774 24.5580596,44.8075774 L1.53497256,44.8075774 L1.53497256,1.54508887 Z M41.4416568,1.54508887 L64.4647438,1.54508887 L64.4647438,44.8075774 L41.4416568,44.8075774 C38.2520383,44.8075774 35.5899555,45.8788647 33.7672944,47.8977551 L33.7672944,8.49798881 C33.7672944,4.97928066 37.5565108,1.54508887 41.4416568,1.54508887 Z M6.7627482,8.49798881 C6.39701878,8.5673942 6.13321258,8.89331525 6.13920625,9.27053325 L6.13920625,16.2234332 C6.13920625,16.6489352 6.48395396,16.9959776 6.90664249,16.9959776 L25.3251121,16.9959776 C25.7478007,16.9959776 26.0925484,16.6489352 26.0925484,16.2234332 L26.0925484,9.27053325 C26.0925484,8.84503122 25.7478007,8.49798881 25.3251121,8.49798881 L6.90664249,8.49798881 C6.85867772,8.49195524 6.81071296,8.49195524 6.7627482,8.49798881 Z M40.5299425,8.49798881 C40.107254,8.53721862 39.795483,8.91745726 39.8344534,9.34299791 C39.8734238,9.76853857 40.2511483,10.0823461 40.6738752,10.0431163 L59.0923448,10.0431163 C59.2991919,10.046137 59.4970446,9.9646567 59.6409389,9.81980462 C59.7878339,9.67495253 59.8717684,9.47879578 59.8717684,9.27057187 C59.8717684,9.06234797 59.7878262,8.86619121 59.6409389,8.72133913 C59.4970446,8.57648705 59.2991919,8.49500679 59.0923448,8.49802744 L40.6738752,8.49802744 C40.6259104,8.49199386 40.5779457,8.49199386 40.5299809,8.49802744 L40.5299425,8.49798881 Z M7.67446244,10.0430777 L24.5580596,10.0430777 L24.5580596,15.4508887 L7.67446244,15.4508887 L7.67446244,10.0430777 Z M40.5299425,15.4508887 C40.107254,15.4901186 39.795483,15.8703572 39.8344534,16.2958978 C39.8734238,16.7214385 40.2511483,17.0352461 40.6738752,16.9960162 L59.0923448,16.9960162 C59.2991919,16.9990369 59.4970446,16.9175566 59.6409389,16.7727046 C59.7878339,16.6278525 59.8717684,16.4316957 59.8717684,16.2234718 C59.8717684,16.0152479 59.7878262,15.8190911 59.6409389,15.6742391 C59.4970446,15.529387 59.2991919,15.4479067 59.0923448,15.4509274 L40.6738752,15.4509274 C40.6259104,15.4448938 40.5779457,15.4448938 40.5299809,15.4509274 L40.5299425,15.4508887 Z M6.7627482,22.4037887 C6.34005967,22.4430185 6.0282887,22.8232571 6.06725911,23.2487978 C6.10622952,23.6743384 6.48395396,23.988146 6.90668086,23.9489162 L25.3251505,23.9489162 C25.5319976,23.9519368 25.7298503,23.8704566 25.8737446,23.7256045 C26.0206396,23.5807524 26.1045741,23.3845956 26.1045741,23.1763717 C26.1045741,22.9681478 26.0206319,22.7719911 25.8737446,22.627139 C25.7298503,22.4822869 25.5319976,22.4008067 25.3251505,22.4038273 L6.90668086,22.4038273 C6.8587161,22.3977937 6.81075133,22.3977937 6.76278657,22.4038273 L6.7627482,22.4037887 Z M40.5299425,22.4037887 C40.107254,22.4430185 39.795483,22.8232571 39.8344534,23.2487978 C39.8734238,23.6743384 40.2511483,23.988146 40.6738752,23.9489162 L59.0923448,23.9489162 C59.2991919,23.9519368 59.4970446,23.8704566 59.6409389,23.7256045 C59.7878339,23.5807524 59.8717684,23.3845956 59.8717684,23.1763717 C59.8717684,22.9681478 59.7878262,22.7719911 59.6409389,22.627139 C59.4970446,22.4822869 59.2991919,22.4008067 59.0923448,22.4038273 L40.6738752,22.4038273 C40.6259104,22.3977937 40.5779457,22.3977937 40.5299809,22.4038273 L40.5299425,22.4037887 Z M6.7627482,29.3566886 C6.34005967,29.3959184 6.0282887,29.7761571 6.06725911,30.2016977 C6.10622952,30.6272384 6.48395396,30.9410459 6.90668086,30.9018161 L25.3251505,30.9018161 C25.5319976,30.9048368 25.7298503,30.8233565 25.8737446,30.6785044 C26.0206396,30.5336523 26.1045741,30.3374956 26.1045741,30.1292717 C26.1045741,29.9210478 26.0206319,29.724891 25.8737446,29.5800389 C25.7298503,29.4351869 25.5319976,29.3537066 25.3251505,29.3567272 L6.90668086,29.3567272 C6.8587161,29.3506937 6.81075133,29.3506937 6.76278657,29.3567272 L6.7627482,29.3566886 Z M40.5299425,29.3566886 C40.1642131,29.426094 39.9004069,29.7520151 39.9064006,30.1292331 L39.9064006,37.082133 C39.9064006,37.507635 40.2511483,37.8546774 40.6738368,37.8546774 L59.0923065,37.8546774 C59.514995,37.8546774 59.8597427,37.507635 59.8597427,37.082133 L59.8597427,30.1292331 C59.8597427,29.703731 59.514995,29.3566886 59.0923065,29.3566886 L40.6738368,29.3566886 C40.6258721,29.350655 40.5779073,29.350655 40.5299425,29.3566886 Z M41.4412731,30.9017775 L58.3248702,30.9017775 L58.3248702,36.3095885 L41.4412731,36.3095885 L41.4412731,30.9017775 Z M6.76236448,36.3095885 C6.33967595,36.3488184 6.02790498,36.729057 6.06687539,37.1545977 C6.1058458,37.5801383 6.48357024,37.8939459 6.90629714,37.8547161 L25.3247668,37.8547161 C25.5316139,37.8577367 25.7294666,37.7762564 25.8733609,37.6314044 C26.0202559,37.4865523 26.1041904,37.2903955 26.1041904,37.0821716 C26.1041904,36.8739477 26.0202482,36.677791 25.8733609,36.5329389 C25.7294666,36.3880868 25.5316139,36.3066065 25.3247668,36.3096272 L6.90629714,36.3096272 C6.85833238,36.3035936 6.81036761,36.3035936 6.76240285,36.3096272 L6.76236448,36.3095885 Z" id="Fill-1" fill="#000000"></path>
                </g>
            </g>
        </g>
    </g>
</svg>