<?xml version="1.0" encoding="UTF-8"?>
<svg width="123px" height="72px" viewBox="0 0 123 72" version="1.1" xmlns="http://www.w3.org/2000/svg" xmlns:xlink="http://www.w3.org/1999/xlink">
    <!-- Generator: sketchtool 51.2 (57519) - http://www.bohemiancoding.com/sketch -->
    <title>960A6A13-F4AA-47B9-96EC-958FB467AD97</title>
    <desc>Created with sketchtool.</desc>
    <defs></defs>
    <g id="Page-1" stroke="none" stroke-width="1" fill="none" fill-rule="evenodd">
        <g id="Pla-de-treball-nou-amb-text" transform="translate(-523.000000, -672.000000)">
            <g id="requisits_icona" transform="translate(523.000000, 672.000000)">
                <path d="M28,0 L95,0 C110.463973,-2.84068575e-15 123,12.536027 123,28 L123,53 C123,54.6568542 121.656854,56 120,56 L3,56 C1.34314575,56 2.02906125e-16,54.6568542 0,53 L0,28 C-1.8937905e-15,12.536027 12.536027,2.84068575e-15 28,0 Z" id="Rectangle-2-Copy-4" fill="#FDF0F6"></path>
                <g id="requisits" transform="translate(43.000000, 22.000000)">
                    <polygon id="Path-Copy-5" fill="#FFFFFF" points="1.5 48 36.5 48 36.5 1.5 1.5 1.5"></polygon>
                    <path d="M9.59305769,15 C9.39423911,15 9.19541573,14.9276283 9.04350481,14.7810739 L7.22789158,13.0297023 C6.92403614,12.7365981 6.92403614,12.2625856 7.22789158,11.9694397 C7.53174703,11.6763355 8.0231467,11.6763355 8.32704536,11.9694397 L9.59310571,13.1907032 L12.6729546,10.2198281 C12.9768101,9.92672396 13.4682098,9.92672396 13.7721084,10.2198281 C14.0759639,10.5129323 14.0759639,10.9869448 13.7721084,11.2800907 L10.1427066,14.7810739 C9.99265394,14.9276283 9.79383536,15 9.59315372,15 L9.59305769,15 Z" id="Fill-10" fill="#000000"></path>
                    <path d="M28.2542712,14 L17.7457288,14 C17.3332401,14 17,13.5531412 17,13 C17,12.4468588 17.3350339,12 17.7457288,12 L28.2542712,12 C28.6667599,12 29,12.4468588 29,13 C29,13.5507173 28.6667645,14 28.2542712,14 Z" id="Fill-11" fill="#000000"></path>
                    <path d="M9.59305769,31 C9.39423911,31 9.19541573,30.9276283 9.04350481,30.7810739 L7.22789158,29.0297023 C6.92403614,28.7365981 6.92403614,28.2625856 7.22789158,27.9694397 C7.53174703,27.6763355 8.0231467,27.6763355 8.32704536,27.9694397 L9.59310571,29.1907032 L12.6729546,26.2198281 C12.9768101,25.926724 13.4682098,25.926724 13.7721084,26.2198281 C14.0759639,26.5129323 14.0759639,26.9869448 13.7721084,27.2800907 L10.1427066,30.7810739 C9.99265394,30.9258173 9.79383536,31 9.59315372,31 L9.59305769,31 Z" id="Fill-12" fill="#000000"></path>
                    <path d="M28.2542712,30 L17.7457288,30 C17.3332401,30 17,29.5531412 17,29 C17,28.446865 17.3350339,28 17.7457288,28 L28.2542712,28 C28.6667599,28 29,28.4468588 29,29 C29,29.5507235 28.6667645,30 28.2542712,30 Z" id="Fill-13" fill="#000000"></path>
                    <path d="M9.59305769,39 C9.39423911,39 9.19541573,38.9276283 9.04350481,38.7810739 L7.22789158,37.0297023 C6.92403614,36.7365981 6.92403614,36.2625856 7.22789158,35.9694397 C7.53174703,35.6763355 8.0231467,35.6763355 8.32704536,35.9694397 L9.59310571,37.1907032 L12.6729546,34.2198281 C12.9768101,33.926724 13.4682098,33.926724 13.7721084,34.2198281 C14.0759639,34.5129323 14.0759639,34.9869448 13.7721084,35.2800907 L10.1427066,38.7810739 C9.99265394,38.9258173 9.79383536,39 9.59315372,39 L9.59305769,39 Z" id="Fill-14" fill="#000000"></path>
                    <path d="M28.2542712,38 L17.7457288,38 C17.3332401,38 17,37.5531412 17,37 C17,36.4468588 17.3350339,36 17.7457288,36 L28.2542712,36 C28.6667599,36 29,36.4468588 29,37 C29,37.5531412 28.6667645,38 28.2542712,38 Z" id="Fill-15" fill="#000000"></path>
                    <path d="M9.59305769,23 C9.39423911,23 9.19541573,22.9276283 9.04350481,22.7810739 L7.22789158,21.0297023 C6.92403614,20.7365981 6.92403614,20.2625856 7.22789158,19.9694397 C7.53174703,19.6763355 8.0231467,19.6763355 8.32704536,19.9694397 L9.59310571,21.1907032 L12.6729546,18.2198281 C12.9768101,17.926724 13.4682098,17.926724 13.7721084,18.2198281 C14.0759639,18.5129323 14.0759639,18.9869448 13.7721084,19.2800907 L10.1427066,22.7810739 C9.99265394,22.9276283 9.79383536,23 9.59315372,23 L9.59305769,23 Z" id="Fill-16" fill="#000000"></path>
                    <path d="M28.2542712,22 L17.7457288,22 C17.3332401,22 17,21.5531412 17,21 C17,20.446865 17.3350339,20 17.7457288,20 L28.2542712,20 C28.6667599,20 29,20.4468588 29,21 C29,21.5507173 28.6667645,22 28.2542712,22 Z" id="Fill-17" fill="#000000"></path>
                    <path d="M0.65674,49.4999471 C0.3466612,49.4999471 0.09352,49.2489335 0.09352,48.9367271 L0.09352,0.56322 C0.09352,0.2510352 0.3445336,0 0.65674,0 L37.34326,0 C37.6533388,0 37.90648,0.2510136 37.90648,0.56322 L37.90648,48.938886 C37.90648,49.2489648 37.6554664,49.5 37.34326,49.5 L0.65674,49.4999471 Z M1.5,48 L36.5,48 L36.5,1.5 L1.5,1.5 L1.5,48 Z" id="Fill-12" fill="#000000"></path>
                </g>
            </g>
        </g>
    </g>
</svg>