<?xml version="1.0" encoding="UTF-8"?>
<svg width="35px" height="34px" viewBox="0 0 35 34" version="1.1" xmlns="http://www.w3.org/2000/svg" xmlns:xlink="http://www.w3.org/1999/xlink">
    <!-- Generator: Sketch 51.2 (57519) - http://www.bohemiancoding.com/sketch -->
    <title>avaluacio-icona</title>
    <desc>Created with Sketch.</desc>
    <defs></defs>
    <g id="Page-1" stroke="none" stroke-width="1" fill="none" fill-rule="evenodd">
        <g id="Artboard-2" transform="translate(-128.000000, -332.000000)">
            <g id="avaluacio-icona" transform="translate(128.000000, 332.000000)">
                <g id="Group" fill="#f3a22d" fill-rule="nonzero">
                    <path d="M7,1 L7,33 L34,33 L34,1 L7,1 Z M35,0 L35,34 L6,34 L6,0 L35,0 Z" id="Rectangle-14"></path>
                    <polygon id="Line-8" points="4 33 6 33 6 34 3 34 3 0 6 0 6 1 4 1"></polygon>
                    <polygon id="Line-8-Copy" points="1 33 3 33 3 34 0 34 0 0 3 0 3 1 1 1"></polygon>
                </g>
                <g id="Group-14" transform="translate(11.000000, 6.000000)">
                    <path d="M5,1.5 L17,1.5" id="Line-6" stroke="#f3a22d" stroke-linecap="round"></path>
                    <path d="M5,3.5 L17,3.5" id="Line-6" stroke="#f3a22d" stroke-linecap="round"></path>
                    <path d="M5,5.5 L10.5,5.5" id="Line-6" stroke="#f3a22d" stroke-linecap="round"></path>
                    <circle id="Oval-2" fill="#f3a22d" fill-rule="nonzero" cx="1.5" cy="1.5" r="1"></circle>
                </g>
                <g id="Group-14-Copy" transform="translate(11.000000, 14.000000)">
                    <path d="M5,1.5 L17,1.5" id="Line-6" stroke="#f3a22d" stroke-linecap="round"></path>
                    <path d="M5,3.5 L17,3.5" id="Line-6" stroke="#f3a22d" stroke-linecap="round"></path>
                    <path d="M5,5.5 L10.5,5.5" id="Line-6" stroke="#f3a22d" stroke-linecap="round"></path>
                    <circle id="Oval-2" fill="#f3a22d" fill-rule="nonzero" cx="1.5" cy="1.5" r="1"></circle>
                </g>
                <g id="Group-14-Copy-2" transform="translate(11.000000, 22.000000)">
                    <path d="M5,1.5 L17,1.5" id="Line-6" stroke="#f3a22d" stroke-linecap="round"></path>
                    <path d="M5,3.5 L17,3.5" id="Line-6" stroke="#f3a22d" stroke-linecap="round"></path>
                    <path d="M5,5.5 L10.5,5.5" id="Line-6" stroke="#f3a22d" stroke-linecap="round"></path>
                    <circle id="Oval-2" fill="#f3a22d" fill-rule="nonzero" cx="1.5" cy="1.5" r="1"></circle>
                </g>
            </g>
        </g>
    </g>
</svg>