<?xml version="1.0" encoding="UTF-8" standalone="no"?>
<svg
   xmlns:dc="http://purl.org/dc/elements/1.1/"
   xmlns:cc="http://creativecommons.org/ns#"
   xmlns:rdf="http://www.w3.org/1999/02/22-rdf-syntax-ns#"
   xmlns:svg="http://www.w3.org/2000/svg"
   xmlns="http://www.w3.org/2000/svg"
   xmlns:sodipodi="http://sodipodi.sourceforge.net/DTD/sodipodi-0.dtd"
   xmlns:inkscape="http://www.inkscape.org/namespaces/inkscape"
   width="123px"
   height="70px"
   viewBox="0 0 123 70"
   version="1.1"
   id="svg2"
   inkscape:version="0.48.5 r10040"
   sodipodi:docname="durada-icona.svg">
  <metadata
     id="metadata27">
    <rdf:RDF>
      <cc:Work
         rdf:about="">
        <dc:format>image/svg+xml</dc:format>
        <dc:type
           rdf:resource="http://purl.org/dc/dcmitype/StillImage" />
      </cc:Work>
    </rdf:RDF>
  </metadata>
  <sodipodi:namedview
     pagecolor="#ffffff"
     bordercolor="#666666"
     borderopacity="1"
     objecttolerance="10"
     gridtolerance="10"
     guidetolerance="10"
     inkscape:pageopacity="0"
     inkscape:pageshadow="2"
     inkscape:window-width="640"
     inkscape:window-height="480"
     id="namedview25"
     showgrid="false"
     inkscape:zoom="2.7154472"
     inkscape:cx="61.5"
     inkscape:cy="35"
     inkscape:window-x="0"
     inkscape:window-y="0"
     inkscape:window-maximized="0"
     inkscape:current-layer="svg2" />
  <!-- Generator: sketchtool 51.2 (57519) - http://www.bohemiancoding.com/sketch -->
  <title
     id="title4">8F778A15-4870-4218-B7E5-C1F2901857E8</title>
  <desc
     id="desc6">Created with sketchtool.</desc>
  <defs
     id="defs8" />
  <g
     id="Page-1"
     stroke="none"
     stroke-width="1"
     fill="none"
     fill-rule="evenodd">
    <g
       id="Pla-de-treball-nou-amb-text"
       transform="translate(-260.000000, -488.000000)">
      <g
         id="durada_icona"
         transform="translate(260.000000, 488.000000)">
        <path
           d="M28,0 L95,0 C110.463973,-2.84068575e-15 123,12.536027 123,28 L123,53 C123,54.6568542 121.656854,56 120,56 L3,56 C1.34314575,56 2.02906125e-16,54.6568542 0,53 L0,28 C-1.8937905e-15,12.536027 12.536027,2.84068575e-15 28,0 Z"
           id="Rectangle-2"
           fill="#fcebd4" />
      </g>
    </g>
  </g>
  <g
     transform="translate(34.946108,6.251497)"
     id="g3">
    <path
       inkscape:connector-curvature="0"
       d="M 31.793,41.707 C 31.988,41.902 32.244,42 32.5,42 c 0.256,0 0.512,-0.098 0.707,-0.293 l 3.293,-3.293 3.293,3.293 C 39.988,41.902 40.244,42 40.5,42 c 0.256,0 0.512,-0.098 0.707,-0.293 0.391,-0.391 0.391,-1.023 0,-1.414 L 37.914,37 41.207,33.707 c 0.391,-0.391 0.391,-1.023 0,-1.414 -0.391,-0.391 -1.023,-0.391 -1.414,0 L 36.5,35.586 33.207,32.293 c -0.391,-0.391 -1.023,-0.391 -1.414,0 -0.391,0.391 -0.391,1.023 0,1.414 L 35.086,37 31.793,40.293 c -0.391,0.391 -0.391,1.023 0,1.414 z"
       id="path5" />
    <path
       inkscape:connector-curvature="0"
       d="m 26.5,0 c -0.553,0 -1,0.447 -1,1 0,0.553 0.447,1 1,1 1.302,0 2.402,0.838 2.816,2 h 2.083 C 30.934,1.721 28.914,0 26.5,0 z"
       id="path7" />
    <path
       inkscape:connector-curvature="0"
       d="m 32.5,0 c -0.553,0 -1,0.447 -1,1 0,0.553 0.447,1 1,1 1.302,0 2.402,0.838 2.816,2 h 2.083 C 36.934,1.721 34.914,0 32.5,0 z"
       id="path9" />
    <path
       inkscape:connector-curvature="0"
       d="m 38.5,0 c -0.553,0 -1,0.447 -1,1 0,0.553 0.447,1 1,1 1.302,0 2.402,0.838 2.816,2 h 2.083 C 42.934,1.721 40.914,0 38.5,0 z"
       id="path11" />
    <path
       inkscape:connector-curvature="0"
       d="m 43.399,4 c 0.066,0.323 0.101,0.658 0.101,1 0,2.757 -2.243,5 -5,5 -0.553,0 -1,-0.447 -1,-1 0,-0.553 0.447,-1 1,-1 1.654,0 3,-1.346 3,-3 0,-0.353 -0.072,-0.686 -0.184,-1 h -3.917 c 0.066,0.323 0.101,0.658 0.101,1 0,2.757 -2.243,5 -5,5 -0.553,0 -1,-0.447 -1,-1 0,-0.553 0.447,-1 1,-1 1.654,0 3,-1.346 3,-3 0,-0.353 -0.072,-0.686 -0.184,-1 h -3.917 c 0.066,0.323 0.101,0.658 0.101,1 0,2.757 -2.243,5 -5,5 -0.553,0 -1,-0.447 -1,-1 0,-0.553 0.447,-1 1,-1 1.654,0 3,-1.346 3,-3 0,-0.353 -0.072,-0.686 -0.184,-1 h -3.917 c 0.066,0.323 0.101,0.658 0.101,1 0,2.757 -2.243,5 -5,5 -0.553,0 -1,-0.447 -1,-1 0,-0.553 0.447,-1 1,-1 1.654,0 3,-1.346 3,-3 0,-0.353 -0.072,-0.686 -0.184,-1 H 18.5 17.684 c 0.414,-1.162 1.514,-2 2.816,-2 1.302,0 2.402,0.838 2.816,2 h 2.083 C 24.934,1.721 22.915,0 20.5,0 18.085,0 16.066,1.721 15.601,4 H 14.5 0.5 v 11 14 2 12 2 14 h 14 2 12 2 12 2 14 V 45 43 31 29 15 4 H 43.399 z M 14.5,57 H 2.5 V 45 h 12 v 12 z m 0,-14 H 2.5 V 31 h 12 v 12 z m 0,-14 H 2.5 V 17 h 12 v 12 z m 14,28 h -12 V 45 h 12 v 12 z m 0,-14 h -12 V 31 h 12 v 12 z m 0,-14 h -12 V 17 h 12 v 12 z m 14,28 h -12 V 45 h 12 v 12 z m 0,-14 h -12 V 31 h 12 v 12 z m 0,-14 h -12 V 17 h 12 v 12 z m 14,28 h -12 V 45 h 12 v 12 z m 0,-14 h -12 V 31 h 12 v 12 z m 0,-14 h -12 V 17 h 12 v 12 z"
       id="path13" />
  </g>
</svg>
