<?xml version="1.0" encoding="UTF-8"?>
<svg width="372px" height="123px" viewBox="0 0 372 123" version="1.1" xmlns="http://www.w3.org/2000/svg" xmlns:xlink="http://www.w3.org/1999/xlink">
    <!-- Generator: sketchtool 51.2 (57519) - http://www.bohemiancoding.com/sketch -->
    <title>AC6841B8-8B4A-4A06-BA19-04835EA855B8</title>
    <desc>Created with sketchtool.</desc>
    <defs></defs>
    <g id="Page-1" stroke="none" stroke-width="1" fill="none" fill-rule="evenodd" stroke-opacity="0.158995697">
        <g id="Pla-de-treball-nou-amb-text" transform="translate(-313.000000, -1943.000000)" fill="#fcebd4" stroke="#f3a22d">
            <path d="M521.547106,1944.49726 C521.547106,1945.5015 521.547106,1945.75665 521.547106,1947.75139 C521.547106,1950.03479 521.547106,1950.03479 521.547106,1951.5 C521.547106,1961.09846 514.131584,1969.09718 503.77389,1969.09718 C493.337445,1969.09718 485.5,1960.98519 485.5,1951.5 L485.5,1944.49917 C407.880402,1944.49972 351.047966,1944.5 315.002692,1944.5 C314.173075,1944.5 313.5,1945.17486 313.499993,1946.00529 L314.003365,2038.992 C314.003365,2039.82514 314.67644,2040.5 315.506249,2040.5 L487.502851,2040.5662 L487.502692,2041.06617 L487.5,2049.5 C487.5,2058.21242 494.754512,2065 503.77389,2065 C512.688034,2065 519.544415,2058.30913 519.544415,2049.5 C519.544415,2045.81866 519.544415,2045.81866 519.544415,2043.476 C519.544415,2043.2982 519.544752,2043.06224 519.545761,2042.4395 C519.546348,2042.05142 519.546348,2042.05142 519.546802,2041.64438 C519.547047,2041.35159 519.547047,2041.35159 519.547106,2041.06601 L519.547106,2040.56621 L520.046904,2040.56601 L683,2040.5 C683.829617,2040.5 684.502692,2039.82514 684.502699,2038.99471 L683.999327,1946.008 C683.999327,1945.07764 683.240548,1944.11195 682.499327,1944.11195 C642.405999,1944.11195 588.755215,1944.24038 521.547106,1944.49726 Z" id="puzzle_mig"></path>
        </g>
    </g>
</svg>