<?xml version="1.0" encoding="UTF-8"?>
<svg width="371px" height="120px" viewBox="0 0 371 120" version="1.1" xmlns="http://www.w3.org/2000/svg" xmlns:xlink="http://www.w3.org/1999/xlink">
    <!-- Generator: sketchtool 51.2 (57519) - http://www.bohemiancoding.com/sketch -->
    <title>E5D8EF45-E124-4A3C-AB42-9F945BC7F7CB</title>
    <desc>Created with sketchtool.</desc>
    <defs></defs>
    <g id="Page-1" stroke="none" stroke-width="1" fill="none" fill-rule="evenodd" stroke-opacity="0.158995697">
        <g id="Pla-de-treball-nou-amb-text" transform="translate(-313.000000, -1848.000000)" fill="#fcebd4" stroke="#f3a22d">
            <path d="M519.5,1943 L519.5,1942.5 L682,1942.5 C682.827972,1942.5 683.5,1941.82524 683.5,1940.99187 L683.5,1850.00813 C683.5,1849.17476 682.827972,1848.5 682,1848.5 L315,1848.5 C314.172028,1848.5 313.5,1849.17476 313.5,1850.00813 L313.5,1940.99187 C313.5,1941.82524 314.172028,1942.5 315,1942.5 L487.5,1942.5 L487.5,1951.43289 C487.5,1960.20673 494.560108,1967 503.5,1967 C512.439892,1967 519.5,1960.20673 519.5,1951.43289 C519.5,1948.2424 519.5,1948.2424 519.5,1943 Z" id="puzzle_dalt"></path>
        </g>
    </g>
</svg>