<?xml version="1.0" encoding="UTF-8"?>
<svg width="29px" height="34px" viewBox="0 0 29 34" version="1.1" xmlns="http://www.w3.org/2000/svg" xmlns:xlink="http://www.w3.org/1999/xlink">
    <!-- Generator: sketchtool 51.2 (57519) - http://www.bohemiancoding.com/sketch -->
    <title>ADDC593F-4A6C-4874-B580-924493B683B5</title>
    <desc>Created with sketchtool.</desc>
    <defs></defs>
    <g id="Page-1" stroke="none" stroke-width="1" fill="none" fill-rule="evenodd">
        <g id="Pla-de-treball-nou-amb-text" transform="translate(-378.000000, -2172.000000)">
            <g id="questionari_icona" transform="translate(378.000000, 2172.000000)">
                <rect id="Rectangle-14" stroke="#f3a22d" x="0.5" y="0.5" width="28" height="33"></rect>
                <g id="Group-10-Copy-2" transform="translate(13.000000, 18.000000)" stroke="#f3a22d" stroke-linecap="round">
                    <path d="M0.5,1.5 C6.5,1.5 9.5,1.5 9.5,1.5" id="Line-6"></path>
                    <path d="M0.5,3.5 L3.5,3.5" id="Line-6-Copy-3"></path>
                </g>
                <g id="Group-10-Copy-3" transform="translate(13.000000, 24.000000)" stroke="#f3a22d" stroke-linecap="round">
                    <path d="M0.5,1.5 L9.5,1.5" id="Line-6"></path>
                    <path d="M0.5,3.5 L3.5,3.5" id="Line-6-Copy-3"></path>
                </g>
                <path d="M9.85106108,27.1502495 C10.0505696,27.3405221 10.0505696,27.6600927 9.85106108,27.8503686 C9.66078849,28.0498771 9.34121783,28.0498771 9.15094287,27.8503686 L8.50069293,27.2102853 L7.85044299,27.8503686 C7.66017039,28.0498771 7.34059974,28.0498771 7.15032478,27.8503686 C6.94989174,27.6600951 6.94989174,27.3405244 7.15032478,27.1502495 L7.79040718,26.4999995 L7.15032478,25.8497496 C6.95081628,25.659477 6.95081628,25.3399063 7.15032478,25.1496314 C7.34059737,24.9501229 7.66016803,24.9501229 7.85044299,25.1496314 L8.50069293,25.7897138 L9.15094287,25.1496314 C9.34121547,24.9501229 9.66078612,24.9501229 9.85106108,25.1496314 C10.0514941,25.339904 10.0514941,25.6594746 9.85106108,25.8497496 L9.21097868,26.4999995 L9.85106108,27.1502495 Z" id="Fill-4" fill="#f3a22d"></path>
                <path d="M10.772702,19.1662409 C10.6699914,19.0592962 10.5312829,19 10.383041,19 C10.232682,19 10.0939735,19.0592962 9.99337996,19.1662409 L8.90910584,20.2399162 L8.49827437,20.6507477 L7.94873714,20.1096678 C7.84602657,20.0016633 7.70731809,19.9413099 7.5569618,19.9413099 C7.40660551,19.9413099 7.26789432,20.0006061 7.16835795,20.1064936 C7.06035341,20.2092042 7,20.3479127 7,20.498269 C7,20.6486252 7.05929624,20.7873364 7.16624091,20.88793 L8.10543915,21.8271282 C8.20285305,21.9351328 8.34580104,21.996546 8.49932883,21.996546 C8.65180488,21.996546 8.79582359,21.9351328 8.88898984,21.8303051 L10.7716421,19.9476529 C10.8796466,19.8449423 10.9400001,19.7062338 10.9400001,19.5558775 C10.9389402,19.4076356 10.8796439,19.2689244 10.7726993,19.1662165 L10.772702,19.1662409 Z" id="Fill-8" fill="#f3a22d"></path>
                <g id="Group-10-Copy-5" transform="translate(13.000000, 6.000000)" stroke="#f3a22d" stroke-linecap="round">
                    <path d="M0.5,1.5 L9.5,1.5" id="Line-6"></path>
                    <path d="M0.5,3.5 L3.5,3.5" id="Line-6-Copy-3"></path>
                </g>
                <g id="Group-10-Copy-4" transform="translate(13.000000, 12.000000)" stroke="#f3a22d" stroke-linecap="round">
                    <path d="M0.5,1.5 L9.5,1.5" id="Line-6"></path>
                    <path d="M0.5,3.5 L3.5,3.5" id="Line-6-Copy-3"></path>
                </g>
                <path d="M9.85106108,15.1502495 C10.0505696,15.3405221 10.0505696,15.6600927 9.85106108,15.8503686 C9.66078849,16.0498771 9.34121783,16.0498771 9.15094287,15.8503686 L8.50069293,15.2102853 L7.85044299,15.8503686 C7.66017039,16.0498771 7.34059974,16.0498771 7.15032478,15.8503686 C6.94989174,15.6600951 6.94989174,15.3405244 7.15032478,15.1502495 L7.79040718,14.4999995 L7.15032478,13.8497496 C6.95081628,13.659477 6.95081628,13.3399063 7.15032478,13.1496314 C7.34059737,12.9501229 7.66016803,12.9501229 7.85044299,13.1496314 L8.50069293,13.7897138 L9.15094287,13.1496314 C9.34121547,12.9501229 9.66078612,12.9501229 9.85106108,13.1496314 C10.0514941,13.339904 10.0514941,13.6594746 9.85106108,13.8497496 L9.21097868,14.4999995 L9.85106108,15.1502495 Z" id="Fill-4-Copy" fill="#f3a22d"></path>
                <path d="M10.772702,7.16624091 C10.6699914,7.05929624 10.5312829,7 10.383041,7 C10.232682,7 10.0939735,7.05929624 9.99337996,7.16624091 L8.90910584,8.23991625 L8.49827437,8.65074771 L7.94873714,8.10966782 C7.84602657,8.00166327 7.70731809,7.94130987 7.5569618,7.94130987 C7.40660551,7.94130987 7.26789432,8.00060611 7.16835795,8.10649361 C7.06035341,8.20920418 7,8.34791266 7,8.49826895 C7,8.64862525 7.05929624,8.78733643 7.16624091,8.88792997 L8.10543915,9.82712821 C8.20285305,9.93513275 8.34580104,9.99654604 8.49932883,9.99654604 C8.65180488,9.99654604 8.79582359,9.93513275 8.88898984,9.83030513 L10.7716421,7.94765287 C10.8796466,7.84494229 10.9400001,7.70623382 10.9400001,7.55587752 C10.9389402,7.40763557 10.8796439,7.26892438 10.7726993,7.16621651 L10.772702,7.16624091 Z" id="Fill-8-Copy" fill="#f3a22d"></path>
            </g>
        </g>
    </g>
</svg>