<?xml version="1.0" encoding="UTF-8"?>
<svg width="71px" height="80px" viewBox="0 0 71 80" version="1.1" xmlns="http://www.w3.org/2000/svg" xmlns:xlink="http://www.w3.org/1999/xlink">
    <!-- Generator: sketchtool 51.2 (57519) - http://www.bohemiancoding.com/sketch -->
    <title>8E11C620-B9EF-4706-8ED7-B94E18B1A33A</title>
    <desc>Created with sketchtool.</desc>
    <defs></defs>
    <g id="Page-1" stroke="none" stroke-width="1" fill="none" fill-rule="evenodd">
        <g id="Pla-de-treball-nou-amb-text" transform="translate(-585.000000, -4122.000000)">
            <g id="paf2_icona" transform="translate(585.000000, 4122.000000)">
                <circle id="Oval-Copy-4" fill="#FDF0F6" cx="35.5" cy="44.5" r="35.5"></circle>
                <g id="requisits_icon-copy" transform="translate(16.000000, 0.000000)">
                    <path d="M0.65674,49.4999471 C0.3466612,49.4999471 0.09352,49.2489335 0.09352,48.9367271 L0.09352,0.56322 C0.09352,0.2510352 0.3445336,0 0.65674,0 L37.34326,0 C37.6533388,0 37.90648,0.2510136 37.90648,0.56322 L37.90648,48.938886 C37.90648,49.2489648 37.6554664,49.5 37.34326,49.5 L0.65674,49.4999471 Z" id="Fill-12-Copy" fill="#FFFFFF"></path>
                    <path d="M0.65674,49.4999471 C0.3466612,49.4999471 0.09352,49.2489335 0.09352,48.9367271 L0.09352,0.56322 C0.09352,0.2510352 0.3445336,0 0.65674,0 L37.34326,0 C37.6533388,0 37.90648,0.2510136 37.90648,0.56322 L37.90648,48.938886 C37.90648,49.2489648 37.6554664,49.5 37.34326,49.5 L0.65674,49.4999471 Z M1.5,48 L36.5,48 L36.5,1.5 L1.5,1.5 L1.5,48 Z" id="Fill-12" fill="#27213C"></path>
                </g>
                <g id="Group-6-Copy" transform="translate(21.000000, 8.000000)" fill="#27213C">
                    <path d="M8.95634921,30.5163651 C9.21081349,30.7590494 9.21081349,31.1666476 8.95634921,31.4093361 C8.71366492,31.6638004 8.30606667,31.6638004 8.06337937,31.4093361 L7.23401429,30.5929381 L6.40464921,31.4093361 C6.16196492,31.6638004 5.75436667,31.6638004 5.51167937,31.4093361 C5.25603587,31.1666506 5.25603587,30.7590524 5.51167937,30.5163651 L6.32807619,29.687 L5.51167937,28.8576349 C5.25721508,28.6149506 5.25721508,28.2073524 5.51167937,27.9646651 C5.75436365,27.7102008 6.1619619,27.7102008 6.40464921,27.9646651 L7.23401429,28.7810619 L8.06337937,27.9646651 C8.30606365,27.7102008 8.7136619,27.7102008 8.95634921,27.9646651 C9.2119927,28.2073494 9.2119927,28.6149476 8.95634921,28.8576349 L8.13995238,29.687 L8.95634921,30.5163651 Z" id="Fill-4"></path>
                    <path d="M9.24014286,17.7519841 C9.12586841,17.6329989 8.97154317,17.5670267 8.80661111,17.5670267 C8.63932365,17.5670267 8.48499841,17.6329989 8.37307937,17.7519841 L7.16673016,18.9465413 L6.70964444,19.403627 L6.09823651,18.8016286 C5.98396206,18.6814641 5.82963683,18.6143157 5.66235238,18.6143157 C5.49506794,18.6143157 5.34073968,18.6802879 5.22999683,18.798097 C5.10983238,18.9123714 5.04268397,19.0666967 5.04268397,19.2339811 C5.04268397,19.4012656 5.10865619,19.5555938 5.22764143,19.6675129 L6.27258111,20.7124525 C6.38096254,20.832617 6.5400046,20.9009446 6.71081762,20.9009446 C6.88046048,20.9009446 7.04069381,20.832617 7.14434937,20.7159871 L9.23896365,18.6213729 C9.3591281,18.5070984 9.42627651,18.3527732 9.42627651,18.1854887 C9.4250973,18.0205567 9.35912508,17.8662284 9.24013984,17.751957 L9.24014286,17.7519841 Z" id="Fill-8"></path>
                    <path d="M23.4500317,18.7710476 L14.4437302,18.7710476 C14.0950349,18.7710476 13.8122667,18.4883095 13.8122667,18.1395841 C13.8122667,17.7908587 14.0950048,17.5081206 14.4437302,17.5081206 L23.4500317,17.5081206 C23.798727,17.5081206 24.0814952,17.7908587 24.0814952,18.1395841 C24.0826744,18.4882794 23.7987571,18.7710476 23.4500317,18.7710476 Z" id="Fill-9"></path>
                    <path d="M22.2943492,20.9611746 L14.4247302,20.9611746 C14.0760349,20.9611746 13.7932667,20.6784365 13.7932667,20.3297111 C13.7932667,19.9809857 14.0760048,19.6982476 14.4247302,19.6982476 L22.2943492,19.6982476 C22.6430444,19.6982476 22.9258127,19.9809857 22.9258127,20.3297111 C22.9258127,20.6784365 22.6430746,20.9611746 22.2943492,20.9611746 Z" id="Fill-10"></path>
                    <path d="M27.3685365,5.9611746 L19.4247302,5.9611746 C19.0760349,5.9611746 18.7932667,5.67843651 18.7932667,5.32971111 C18.7932667,4.98098571 19.0760048,4.69824762 19.4247302,4.69824762 L27.3685365,4.69824762 C27.7172317,4.69824762 28,4.98098571 28,5.32971111 C28,5.67843651 27.7172619,5.9611746 27.3685365,5.9611746 Z" id="Fill-10-Copy"></path>
                    <path d="M8.86853651,5.9611746 L0.631463492,5.9611746 C0.282768254,5.9611746 0,5.67843651 0,5.32971111 C0,4.98098571 0.282738095,4.69824762 0.631463492,4.69824762 L8.86853651,4.69824762 C9.21723175,4.69824762 9.5,4.98098571 9.5,5.32971111 C9.5,5.67843651 9.2172619,5.9611746 8.86853651,5.9611746 Z" id="Fill-10-Copy-2"></path>
                    <path d="M23.4500317,29.2240635 L14.4437302,29.2240635 C14.0950349,29.2240635 13.8122667,28.9413254 13.8122667,28.5926 C13.8122667,28.2438746 14.0950048,27.9611365 14.4437302,27.9611365 L23.4500317,27.9611365 C23.798727,27.9611365 24.0814952,28.2438746 24.0814952,28.5926 C24.0826744,28.9412952 23.7987571,29.2240635 23.4500317,29.2240635 Z" id="Fill-11"></path>
                    <path d="M22.2943492,31.4141908 L14.4247302,31.4141908 C14.0760349,31.4141908 13.7932667,31.1314524 13.7932667,30.782727 C13.7932667,30.4340016 14.0760048,30.1512635 14.4247302,30.1512635 L22.2943492,30.1512635 C22.6430444,30.1512635 22.9258127,30.4340016 22.9258127,30.782727 C22.9258127,31.1314524 22.6430746,31.4141908 22.2943492,31.4141908 Z" id="Fill-12"></path>
                    <path d="M14.01,0.635 C14.3700018,0.635 14.6941652,0.687499475 14.9825,0.7925 C15.2708348,0.897500525 15.5166656,1.0433324 15.72,1.23 C15.9233343,1.4166676 16.0791661,1.63916537 16.1875,1.8975 C16.2958339,2.15583463 16.35,2.43999845 16.35,2.75 C16.35,3.016668 16.3125004,3.2633322 16.2375,3.49 C16.1624996,3.7166678 16.0600006,3.93249898 15.93,4.1375 C15.7999993,4.34250103 15.6491675,4.54083237 15.4775,4.7325 C15.3058325,4.92416763 15.1233343,5.11833235 14.93,5.315 L13.505,6.775 C13.6883342,6.7216664 13.8691658,6.67916682 14.0475,6.6475 C14.2258342,6.61583318 14.3933325,6.6 14.55,6.6 L15.91,6.6 C16.0766675,6.6 16.2083328,6.64583288 16.305,6.7375 C16.4016671,6.82916712 16.45,6.94999925 16.45,7.1 L16.45,8 L11.33,8 L11.33,7.5 C11.33,7.40333285 11.3499998,7.30000055 11.39,7.19 C11.4300002,7.07999945 11.4999995,6.98000045 11.6,6.89 L13.7,4.775 C13.8800009,4.5949991 14.036666,4.42333415 14.17,4.26 C14.303334,4.09666585 14.4133329,3.93583412 14.5,3.7775 C14.5866671,3.61916588 14.6516664,3.46083412 14.695,3.3025 C14.7383335,3.14416587 14.76,2.97666755 14.76,2.8 C14.76,2.50999855 14.690834,2.28750077 14.5525,2.1325 C14.414166,1.97749923 14.2033347,1.9 13.92,1.9 C13.8033327,1.9 13.6966671,1.9166665 13.6,1.95 C13.5033328,1.9833335 13.416667,2.02833305 13.34,2.085 C13.2633329,2.14166695 13.1975003,2.20833295 13.1425,2.285 C13.0874997,2.36166705 13.0433335,2.44499955 13.01,2.535 C12.9566664,2.68500075 12.8891671,2.793333 12.8075,2.86 C12.7258329,2.926667 12.6150007,2.96 12.475,2.96 C12.4416665,2.96 12.4058335,2.95833335 12.3675,2.955 C12.3291665,2.95166665 12.2900002,2.9466667 12.25,2.94 L11.43,2.795 C11.4833336,2.43166485 11.5858326,2.11500135 11.7375,1.845 C11.8891674,1.57499865 12.0774989,1.3500009 12.3025,1.17 C12.5275011,0.9899991 12.7849985,0.855833775 13.075,0.7675 C13.3650014,0.679166225 13.676665,0.635 14.01,0.635 Z" id="2"></path>
                </g>
            </g>
        </g>
    </g>
</svg>