<?xml version="1.0" encoding="UTF-8"?>
<svg width="39px" height="24px" viewBox="0 0 39 24" version="1.1" xmlns="http://www.w3.org/2000/svg" xmlns:xlink="http://www.w3.org/1999/xlink">
    <!-- Generator: sketchtool 51.2 (57519) - http://www.bohemiancoding.com/sketch -->
    <title>4A6790EC-8D12-4794-B2A6-B9BFA4623857</title>
    <desc>Created with sketchtool.</desc>
    <defs></defs>
    <g id="Page-1" stroke="none" stroke-width="1" fill="none" fill-rule="evenodd">
        <g id="Pla-de-treball-nou-amb-text" transform="translate(-393.000000, -2085.000000)" stroke="#f3a22d">
            <g id="forum_icona" transform="translate(393.000000, 2085.000000)">
                <g id="Group-11" transform="translate(17.000000, 3.000000)">
                    <path d="M12.8043478,19.3877835 L12.8043478,16.5 L21.5,16.5 L21.5,0.5 L0.5,0.5 L0.5,16.5 L10.0970508,16.5 L12.8043478,19.3877835 Z" id="Rectangle-13"></path>
                    <path d="M5,4.5 L17,4.5" id="Line-7" stroke-linecap="round"></path>
                    <path d="M5,8.5 L17,8.5" id="Line-7-Copy-2" stroke-linecap="round"></path>
                    <path d="M5,12.5 L17,12.5" id="Line-7-Copy-3" stroke-linecap="round"></path>
                </g>
                <g id="Group-11-Copy" transform="translate(11.000000, 10.500000) scale(-1, 1) translate(-11.000000, -10.500000) ">
                    <path d="M12.8043478,19.3877835 L12.8043478,16.5 L21.5,16.5 L21.5,0.5 L0.5,0.5 L0.5,3.5 L4.5,3.5 L4.5,16.5 L10.0970508,16.5 L12.8043478,19.3877835 Z" id="Rectangle-13"></path>
                    <path d="M5,4.5 L17,4.5" id="Line-7" stroke-linecap="round"></path>
                    <path d="M5,8.5 L17,8.5" id="Line-7-Copy-2" stroke-linecap="round"></path>
                    <path d="M5,12.5 L17,12.5" id="Line-7-Copy-3" stroke-linecap="round"></path>
                </g>
            </g>
        </g>
    </g>
</svg>