<?xml version="1.0" encoding="UTF-8"?>
<svg width="39px" height="30px" viewBox="0 0 39 30" version="1.1" xmlns="http://www.w3.org/2000/svg" xmlns:xlink="http://www.w3.org/1999/xlink">
    <!-- Generator: sketchtool 51.2 (57519) - http://www.bohemiancoding.com/sketch -->
    <title>DF6B4FA9-0CC4-4ECB-9CA7-3BA8E1D618DA</title>
    <desc>Created with sketchtool.</desc>
    <defs></defs>
    <g id="Page-1" stroke="none" stroke-width="1" fill="none" fill-rule="evenodd">
        <g id="Pla-de-treball-nou-amb-text" transform="translate(-413.000000, -1881.000000)" fill="#f3a22d">
            <path d="M413.000059,1881.4604 L413.000059,1907.77001 C413.000059,1908.02359 413.203774,1908.23041 413.453544,1908.23041 L427.511581,1908.23041 C429.720552,1908.23041 431.259907,1909.05048 432.089059,1910.73383 C432.163457,1910.89569 432.324658,1911 432.50003,1911 C432.675401,1911 432.836602,1910.89569 432.911,1910.73383 C433.740016,1909.05052 435.279417,1908.23041 437.488478,1908.23041 L451.546515,1908.23041 C451.796285,1908.23041 452,1908.02359 452,1907.77001 L452,1881.4604 C452,1881.20682 451.796285,1881 451.546515,1881 L437.488478,1881 C435.382267,1881 433.371696,1882.31467 432.500143,1884.12206 C431.62859,1882.31462 429.618019,1881 427.511807,1881 L413.453771,1881 C413.152403,1881.04136 412.996517,1881.2356 413.000059,1881.4604 Z M413.907029,1881.9208 L427.511581,1881.9208 C429.807349,1881.9208 432.046431,1883.96741 432.046431,1886.06439 L432.046431,1909.06348 C430.969404,1907.86031 429.396355,1907.22188 427.511581,1907.22188 L413.907029,1907.22188 L413.907029,1881.9208 Z M437.488252,1881.9208 L451.092803,1881.9208 L451.092803,1907.22188 L437.488252,1907.22188 C435.603477,1907.22188 434.030428,1907.86031 432.953401,1909.06348 L432.953401,1886.06439 C432.953401,1883.96741 435.192484,1881.9208 437.488252,1881.9208 Z M447.586538,1903.18506 C447.806488,1903.1439 447.965141,1902.9506 447.961536,1902.72688 L447.961536,1898.60326 C447.961536,1898.3509 447.754205,1898.14507 447.5,1898.14507 L437.461536,1898.14507 C437.207331,1898.14507 437,1898.3509 437,1898.60326 L437,1902.72688 C437,1902.97924 437.207331,1903.18506 437.461536,1903.18506 L447.5,1903.18506 C447.528846,1903.18864 447.557692,1903.18864 447.586538,1903.18506 Z M448,1886.49951 C447.976665,1886.22314 447.75049,1886.01934 447.497368,1886.04482 L437.466707,1886.04521 C437.34285,1886.04325 437.224379,1886.09617 437.138217,1886.19024 C437.050259,1886.28431 437,1886.41171 437,1886.54694 C437,1886.68217 437.050263,1886.80956 437.138217,1886.90363 C437.224379,1886.9977 437.34285,1887.05062 437.466707,1887.04866 L447.497368,1887.04826 C447.526088,1887.05218 447.554809,1887.05218 447.583529,1887.04826 C447.836651,1887.02281 448.023335,1886.77587 448,1886.49951 Z M448,1890.53364 C447.976665,1890.25728 447.75049,1890.05348 447.497368,1890.07896 L437.466707,1890.07935 C437.34285,1890.07739 437.224379,1890.1303 437.138217,1890.22438 C437.050259,1890.31845 437,1890.44584 437,1890.58107 C437,1890.7163 437.050263,1890.84369 437.138217,1890.93777 C437.224379,1891.03184 437.34285,1891.08475 437.466707,1891.08279 L447.497368,1891.0824 C447.526088,1891.08632 447.554809,1891.08632 447.583529,1891.0824 C447.836651,1891.05695 448.023335,1890.81 448,1890.53364 Z M448,1894.56778 C447.976665,1894.29141 447.75049,1894.08761 447.497368,1894.11309 L437.466707,1894.11348 C437.34285,1894.11152 437.224379,1894.16444 437.138217,1894.25851 C437.050259,1894.35259 437,1894.47998 437,1894.61521 C437,1894.75044 437.050263,1894.87783 437.138217,1894.9719 C437.224379,1895.06597 437.34285,1895.11889 437.466707,1895.11693 L447.497368,1895.11653 C447.526088,1895.12045 447.554809,1895.12045 447.583529,1895.11653 C447.836651,1895.09108 448.023335,1894.84414 448,1894.56778 Z M447,1902.17921 L438,1902.17921 L438,1899.15361 L447,1899.15361 L447,1902.17921 Z M417.413462,1886.06438 C417.193512,1886.10554 417.034859,1886.29884 417.038464,1886.52256 L417.038464,1890.64618 C417.038464,1890.89854 417.245795,1891.10436 417.5,1891.10436 L427.538464,1891.10436 C427.792669,1891.10436 428,1890.89854 428,1890.64618 L428,1886.52256 C428,1886.2702 427.792669,1886.06438 427.538464,1886.06438 L417.5,1886.06438 C417.471154,1886.0608 417.442308,1886.0608 417.413462,1886.06438 Z M417,1894.68169 C417.023335,1894.95805 417.24951,1895.16185 417.502632,1895.13637 L427.533293,1895.13598 C427.65715,1895.13794 427.775621,1895.08502 427.861783,1894.99095 C427.949741,1894.89688 428,1894.76948 428,1894.63426 C428,1894.49903 427.949737,1894.37163 427.861783,1894.27756 C427.775621,1894.18349 427.65715,1894.13057 427.533293,1894.13253 L417.502632,1894.13293 C417.473912,1894.12901 417.445191,1894.12901 417.416471,1894.13293 C417.163349,1894.15838 416.976665,1894.40532 417,1894.68169 Z M417,1898.71582 C417.023335,1898.99218 417.24951,1899.19598 417.502632,1899.17051 L427.533293,1899.17011 C427.65715,1899.17207 427.775621,1899.11916 427.861783,1899.02508 C427.949741,1898.93101 428,1898.80362 428,1898.66839 C428,1898.53316 427.949737,1898.40577 427.861783,1898.3117 C427.775621,1898.21762 427.65715,1898.16471 427.533293,1898.16667 L417.502632,1898.16706 C417.473912,1898.16314 417.445191,1898.16314 417.416471,1898.16706 C417.163349,1898.19251 416.976665,1898.43946 417,1898.71582 Z M417,1902.74996 C417.023335,1903.02632 417.24951,1903.23012 417.502632,1903.20464 L427.533293,1903.20425 C427.65715,1903.20621 427.775621,1903.15329 427.861783,1903.05922 C427.949741,1902.96515 428,1902.83776 428,1902.70253 C428,1902.5673 427.949737,1902.4399 427.861783,1902.34583 C427.775621,1902.25176 427.65715,1902.19884 427.533293,1902.2008 L417.502632,1902.2012 C417.473912,1902.19728 417.445191,1902.19728 417.416471,1902.2012 C417.163349,1902.22665 416.976665,1902.47359 417,1902.74996 Z M418,1887.0512 L427,1887.0512 L427,1890.0768 L418,1890.0768 L418,1887.0512 Z" id="llibre_icona"></path>
        </g>
    </g>
</svg>