<?xml version="1.0" encoding="UTF-8"?>
<svg width="71px" height="80px" viewBox="0 0 71 80" version="1.1" xmlns="http://www.w3.org/2000/svg" xmlns:xlink="http://www.w3.org/1999/xlink">
    <!-- Generator: sketchtool 51.2 (57519) - http://www.bohemiancoding.com/sketch -->
    <title>510F9E62-669F-4A84-8137-45F34EB96BA6</title>
    <desc>Created with sketchtool.</desc>
    <defs></defs>
    <g id="Page-1" stroke="none" stroke-width="1" fill="none" fill-rule="evenodd">
        <g id="Pla-de-treball-nou-amb-text" transform="translate(-344.000000, -4122.000000)">
            <g id="paf1_icona" transform="translate(344.000000, 4122.000000)">
                <circle id="Oval-Copy" fill="#fcebd4" cx="35.5" cy="44.5" r="35.5"></circle>
                <path d="M16.65674,49.4999471 C16.3466612,49.4999471 16.09352,49.2489335 16.09352,48.9367271 L16.09352,0.56322 C16.09352,0.2510352 16.3445336,0 16.65674,0 L53.34326,0 C53.6533388,0 53.90648,0.2510136 53.90648,0.56322 L53.90648,48.938886 C53.90648,49.2489648 53.6554664,49.5 53.34326,49.5 L16.65674,49.4999471 Z" id="Fill-12-Copy" fill="#FFFFFF"></path>
                <path d="M16.65674,49.4999471 C16.3466612,49.4999471 16.09352,49.2489335 16.09352,48.9367271 L16.09352,0.56322 C16.09352,0.2510352 16.3445336,0 16.65674,0 L53.34326,0 C53.6533388,0 53.90648,0.2510136 53.90648,0.56322 L53.90648,48.938886 C53.90648,49.2489648 53.6554664,49.5 53.34326,49.5 L16.65674,49.4999471 Z M17.5,48 L52.5,48 L52.5,1.5 L17.5,1.5 L17.5,48 Z" id="Fill-12" fill="#131515"></path>
                <g id="Group-6" transform="translate(21.000000, 6.000000)" fill="#131515">
                    <path d="M8.95634921,32.5163651 C9.21081349,32.7590494 9.21081349,33.1666476 8.95634921,33.4093361 C8.71366492,33.6638004 8.30606667,33.6638004 8.06337937,33.4093361 L7.23401429,32.5929381 L6.40464921,33.4093361 C6.16196492,33.6638004 5.75436667,33.6638004 5.51167937,33.4093361 C5.25603587,33.1666506 5.25603587,32.7590524 5.51167937,32.5163651 L6.32807619,31.687 L5.51167937,30.8576349 C5.25721508,30.6149506 5.25721508,30.2073524 5.51167937,29.9646651 C5.75436365,29.7102008 6.1619619,29.7102008 6.40464921,29.9646651 L7.23401429,30.7810619 L8.06337937,29.9646651 C8.30606365,29.7102008 8.7136619,29.7102008 8.95634921,29.9646651 C9.2119927,30.2073494 9.2119927,30.6149476 8.95634921,30.8576349 L8.13995238,31.687 L8.95634921,32.5163651 Z" id="Fill-4"></path>
                    <path d="M9.24014286,19.7519841 C9.12586841,19.6329989 8.97154317,19.5670267 8.80661111,19.5670267 C8.63932365,19.5670267 8.48499841,19.6329989 8.37307937,19.7519841 L7.16673016,20.9465413 L6.70964444,21.403627 L6.09823651,20.8016286 C5.98396206,20.6814641 5.82963683,20.6143157 5.66235238,20.6143157 C5.49506794,20.6143157 5.34073968,20.6802879 5.22999683,20.798097 C5.10983238,20.9123714 5.04268397,21.0666967 5.04268397,21.2339811 C5.04268397,21.4012656 5.10865619,21.5555938 5.22764143,21.6675129 L6.27258111,22.7124525 C6.38096254,22.832617 6.5400046,22.9009446 6.71081762,22.9009446 C6.88046048,22.9009446 7.04069381,22.832617 7.14434937,22.7159871 L9.23896365,20.6213729 C9.3591281,20.5070984 9.42627651,20.3527732 9.42627651,20.1854887 C9.4250973,20.0205567 9.35912508,19.8662284 9.24013984,19.751957 L9.24014286,19.7519841 Z" id="Fill-8"></path>
                    <path d="M23.4500317,20.7710476 L14.4437302,20.7710476 C14.0950349,20.7710476 13.8122667,20.4883095 13.8122667,20.1395841 C13.8122667,19.7908587 14.0950048,19.5081206 14.4437302,19.5081206 L23.4500317,19.5081206 C23.798727,19.5081206 24.0814952,19.7908587 24.0814952,20.1395841 C24.0826744,20.4882794 23.7987571,20.7710476 23.4500317,20.7710476 Z" id="Fill-9"></path>
                    <path d="M22.2943492,22.9611746 L14.4247302,22.9611746 C14.0760349,22.9611746 13.7932667,22.6784365 13.7932667,22.3297111 C13.7932667,21.9809857 14.0760048,21.6982476 14.4247302,21.6982476 L22.2943492,21.6982476 C22.6430444,21.6982476 22.9258127,21.9809857 22.9258127,22.3297111 C22.9258127,22.6784365 22.6430746,22.9611746 22.2943492,22.9611746 Z" id="Fill-10"></path>
                    <path d="M27.3685365,7.9611746 L19.4247302,7.9611746 C19.0760349,7.9611746 18.7932667,7.67843651 18.7932667,7.32971111 C18.7932667,6.98098571 19.0760048,6.69824762 19.4247302,6.69824762 L27.3685365,6.69824762 C27.7172317,6.69824762 28,6.98098571 28,7.32971111 C28,7.67843651 27.7172619,7.9611746 27.3685365,7.9611746 Z" id="Fill-10-Copy"></path>
                    <path d="M8.86853651,7.9611746 L0.631463492,7.9611746 C0.282768254,7.9611746 0,7.67843651 0,7.32971111 C0,6.98098571 0.282738095,6.69824762 0.631463492,6.69824762 L8.86853651,6.69824762 C9.21723175,6.69824762 9.5,6.98098571 9.5,7.32971111 C9.5,7.67843651 9.2172619,7.9611746 8.86853651,7.9611746 Z" id="Fill-10-Copy-2"></path>
                    <path d="M23.4500317,31.2240635 L14.4437302,31.2240635 C14.0950349,31.2240635 13.8122667,30.9413254 13.8122667,30.5926 C13.8122667,30.2438746 14.0950048,29.9611365 14.4437302,29.9611365 L23.4500317,29.9611365 C23.798727,29.9611365 24.0814952,30.2438746 24.0814952,30.5926 C24.0826744,30.9412952 23.7987571,31.2240635 23.4500317,31.2240635 Z" id="Fill-11"></path>
                    <path d="M22.2943492,33.4141908 L14.4247302,33.4141908 C14.0760349,33.4141908 13.7932667,33.1314524 13.7932667,32.782727 C13.7932667,32.4340016 14.0760048,32.1512635 14.4247302,32.1512635 L22.2943492,32.1512635 C22.6430444,32.1512635 22.9258127,32.4340016 22.9258127,32.782727 C22.9258127,33.1314524 22.6430746,33.4141908 22.2943492,33.4141908 Z" id="Fill-12"></path>
                    <path d="M12.26,8.88 L13.66,8.88 L13.66,5.205 C13.66,5.0249991 13.665,4.83666765 13.675,4.64 L12.85,5.325 C12.7966664,5.36833355 12.7433336,5.39916657 12.69,5.4175 C12.6366664,5.43583343 12.5850003,5.445 12.535,5.445 C12.4483329,5.445 12.3708337,5.42583352 12.3025,5.3875 C12.2341663,5.34916648 12.1833335,5.30833355 12.15,5.265 L11.66,4.615 L13.93,2.71 L15.21,2.71 L15.21,8.88 L16.41,8.88 L16.41,10 L12.26,10 L12.26,8.88 Z" id="1"></path>
                </g>
            </g>
        </g>
    </g>
</svg>