<?xml version="1.0" encoding="UTF-8"?>
<svg width="372px" height="97px" viewBox="0 0 372 97" version="1.1" xmlns="http://www.w3.org/2000/svg" xmlns:xlink="http://www.w3.org/1999/xlink">
    <!-- Generator: Sketch 51.2 (57519) - http://www.bohemiancoding.com/sketch -->
    <title>puzzle_baix</title>
    <desc>Created with Sketch.</desc>
    <defs></defs>
    <g id="Page-1" stroke="none" stroke-width="1" fill="none" fill-rule="evenodd" stroke-opacity="0.158995697">
        <g id="Pla-de-treball-nou-amb-text" transform="translate(-315.000000, -2238.000000)" fill="#fcebd4" stroke="#f3a22d">
            <path d="M522.5,2238.5 C522.5,2239.49701 522.5,2239.75307 522.5,2241.73728 C522.5,2244.01157 522.5,2244.01157 522.5,2245.47095 C522.5,2255.03264 515.083997,2263 504.726783,2263 C494.290801,2263 486.452894,2254.91986 486.452894,2245.47095 L486.452894,2238.5 C381.45019,2238.5 381.348379,2238.5 317.002692,2238.5 C316.172628,2238.5 315.5,2239.17172 315.499993,2239.99731 L316.000673,2333 C316.000673,2333.82828 316.673301,2334.5 317.503365,2334.5 L684.997308,2334.5 C685.827372,2334.5 686.5,2333.82828 686.500007,2333.00269 L685.999327,2240 C685.999327,2239.17172 685.326699,2238.5 684.496635,2238.5 C617.338764,2238.5 617.22101,2238.5 522.5,2238.5 Z" id="puzzle_baix"></path>
        </g>
    </g>
</svg>